<mxfile host="app.diagrams.net" modified="2023-06-29T18:44:25.881Z" agent="Mozilla/5.0 (Windows NT 10.0; Win64; x64) AppleWebKit/537.36 (KHTML, like Gecko) Chrome/114.0.0.0 Safari/537.36 Edg/114.0.1823.58" version="21.5.2" etag="djntUl7oowJPH_XMYRX9" type="github">
  <diagram name="PÃ¡gina-1" id="YF3nYQOEx42rjo2ZkRgp">
    <mxGraphModel>
      <root>
        <mxCell id="0" />
        <mxCell id="1" parent="0" />
      </root>
    </mxGraphModel>
  </diagram>
</mxfile>
